<?xml version="1.0" encoding="UTF-8" ?>
<!DOCTYPE svg PUBLIC "-//W3C//DTD SVG 1.1//EN" "http://www.w3.org/Graphics/SVG/1.1/DTD/svg11.dtd">
<svg width="48pt" height="48pt" viewBox="0 0 48 48" version="1.1" xmlns="http://www.w3.org/2000/svg">
<g id="#00acc1ff">
<path fill="#00acc1" opacity="1.00" d=" M 18.47 4.79 C 24.39 3.04 31.07 4.28 35.97 8.02 C 41.53 12.13 44.68 19.26 43.87 26.14 C 43.19 33.03 38.59 39.33 32.29 42.17 C 26.24 45.01 18.76 44.46 13.18 40.78 C 6.94 36.83 3.25 29.23 4.13 21.88 C 4.88 13.97 10.83 6.93 18.47 4.79 M 19.44 8.66 C 12.51 10.72 7.40 17.82 8.04 25.08 C 8.46 33.57 16.59 40.78 25.10 39.95 C 33.96 39.54 41.29 30.68 39.85 21.88 C 38.84 12.53 28.44 5.65 19.44 8.66 Z" />
</g>
</svg>
