<?xml version="1.0" encoding="UTF-8" ?>
<!DOCTYPE svg PUBLIC "-//W3C//DTD SVG 1.1//EN" "http://www.w3.org/Graphics/SVG/1.1/DTD/svg11.dtd">
<svg width="48pt" height="48pt" viewBox="0 0 48 48" version="1.1" xmlns="http://www.w3.org/2000/svg">
<g id="#f44336ff">
<path fill="#f44336" opacity="1.00" d=" M 8.46 11.98 C 9.63 10.80 10.80 9.63 11.98 8.45 C 16.00 12.44 19.96 16.47 24.00 20.44 C 28.03 16.47 32.00 12.44 36.02 8.46 C 37.20 9.63 38.37 10.80 39.55 11.98 C 35.56 16.00 31.53 19.97 27.56 24.00 C 31.52 28.04 35.56 32.01 39.54 36.03 C 38.37 37.20 37.20 38.37 36.02 39.55 C 32.00 35.56 28.04 31.52 24.00 27.56 C 19.96 31.53 16.00 35.56 11.98 39.54 C 10.80 38.37 9.63 37.20 8.46 36.02 C 12.44 32.00 16.48 28.04 20.44 24.00 C 16.47 19.97 12.45 15.99 8.46 11.98 Z" />
</g>
</svg>
